<svg height="512pt" viewBox="0 -5 512 512" width="512pt" xmlns="http://www.w3.org/2000/svg"><path d="m431.546875 191.296875c-9.210937 0-18 1.785156-26.066406 4.996094 2.453125-10.855469 3.757812-22.148438 3.757812-33.746094-.003906-84.25-68.34375-152.546875-152.652343-152.546875-69.914063 0-128.851563 46.976562-146.933594 111.0625-55.558594 3.125-99.652344 49.132812-99.652344 105.4375 0 58.324219 47.316406 105.609375 105.679688 105.609375h315.867187c38.910156 0 70.453125-31.523437 70.453125-70.40625 0-38.886719-31.542969-70.40625-70.453125-70.40625zm0 0" fill="#2ec8e3"/><path d="m156 391.964844 99.1875 100.035156 99.125-100.035156h-68.3125v-120.039063h-61v120.039063zm0 0" fill="#ff5691"/><path d="m371.097656 226.070312c-5.523437 0-10.003906-4.480468-10.003906-10 0-5.523437 4.472656-10 9.992188-10h.011718c5.523438 0 10 4.476563 10 10 0 5.519532-4.476562 10-10 10zm0 0"/><path d="m431.550781 181.300781c-4.5625 0-9.082031.378907-13.53125 1.128907.808594-6.578126 1.21875-13.230469 1.21875-19.878907 0-89.628906-72.96875-162.550781-162.648437-162.550781-36.160156 0-70.390625 11.609375-99 33.570312-25.839844 19.828126-45.371094 47.371094-55.519532 78.121094-57.78125 6.757813-102.070312 55.886719-102.070312 114.808594 0 63.75 51.890625 115.609375 115.679688 115.609375h99.320312v39.859375h-59c-4.039062 0-7.679688 2.421875-9.230469 6.152344-1.550781 3.730468-.710937 8.019531 2.128907 10.890625l99.179687 100.027343c1.882813 1.890626 4.441406 2.960938 7.113281 2.960938 2.660156 0 5.21875-1.070312 7.097656-2.960938l99.132813-100.027343c2.839844-2.871094 3.679687-7.171875 2.117187-10.890625-1.550781-3.730469-5.1875-6.152344-9.230468-6.152344h-58.308594v-39.859375h135.550781c44.359375 0 80.449219-36.070313 80.449219-80.410156 0-44.328125-36.089844-80.398438-80.449219-80.398438zm-145.550781 220.667969h44.328125l-75.148437 75.820312-75.179688-75.820312h45c5.519531 0 10-4.480469 10-10v-110.039062h41v110.039062c0 5.519531 4.480469 10 10 10zm145.550781-79.859375h-135.550781v-50.179687c0-5.53125-4.480469-10-10-10h-61c-5.519531 0-10 4.46875-10 10v50.179687h-99.320312c-52.757813 0-95.679688-42.890625-95.679688-95.609375 0-50.679688 39.628906-92.609375 90.210938-95.449219 4.269531-.242187 7.910156-3.160156 9.070312-7.269531 8.257812-29.292969 26.1875-55.703125 50.488281-74.351562 25.082031-19.25 55.101563-29.429688 86.820313-29.429688 78.648437 0 142.648437 63.949219 142.648437 142.550781 0 10.621094-1.179687 21.238281-3.507812 31.539063-.820313 3.621094.429687 7.398437 3.257812 9.808594 2.820313 2.410156 6.742188 3.0625 10.191407 1.679687 7.140624-2.839844 14.671874-4.277344 22.371093-4.277344 33.328125 0 60.449219 27.089844 60.449219 60.398438 0 33.3125-27.121094 60.410156-60.449219 60.410156zm0 0"/></svg>