<svg height="512pt" viewBox="0 0 512 512" width="512pt" xmlns="http://www.w3.org/2000/svg"><path d="m100.667969 453.957031h367.332031v46.707031h-367.332031zm0 0" fill="#b3b6c3"/><path d="m437.085938 167.542969v-91.332031h-56v49.90625zm0 0" fill="#b3b6c3"/><path d="m48.304688 253.710938 207.695312-160.726563 210.492188 162.890625 35.4375-35.449219-223.261719-172.773437-246 190.367187zm0 0" fill="#ff5d5d"/><path d="m240.667969 243.292969h71.332031v210.667969h-71.332031zm0 0" fill="#ffc66c"/><path d="m281.761719 113.023438-167.09375 129.960937v210.972656h321.332031v-220.972656zm29.570312 338.933593h-112v-216h112zm0 0" fill="#edf2fa"/><path d="m446 252.660156 14.375 11.125c3.980469 3.082032 9.632812 2.722656 13.191406-.839844l35.507813-35.523437c2.027343-2.03125 3.085937-4.835937 2.90625-7.703125-.183594-2.867188-1.589844-5.515625-3.859375-7.273438l-61.035156-47.230468v-89.003906c0-5.523438-4.476563-10-10-10h-56c-5.523438 0-10 4.476562-10 10v30.1875l-108.964844-84.320313c-3.605469-2.789063-8.636719-2.789063-12.242188 0l-246 190.367187c-2.269531 1.753907-3.675781 4.402344-3.8593748 7.265626-.1835932 2.863281.8710938 5.667968 2.8984378 7.699218l35.449219 35.570313c1.941406 1.949219 4.503906 2.941406 7.085937 2.941406 2.148437 0 4.304687-.691406 6.117187-2.09375l14.429688-11.167969v191.300782h-22c-5.523438 0-10 4.476562-10 10v48.039062c0 5.523438 4.476562 10 10 10h424c5.523438 0 10-4.476562 10-10v-48.042969c0-5.523437-4.476562-10-10-10h-22v-56.507812c0-5.523438-4.476562-10-10-10s-10 4.476562-10 10v56.507812h-104v-206c0-5.523437-4.476562-10-10-10h-112c-5.523438 0-10 4.476563-10 10v206h-104v-206.773437l170-131.554688 170 131.554688v70.265625c0 5.523437 4.476562 10 10 10s10-4.476563 10-10zm-236-4.699218h92v196h-92zm248 216v28.039062h-404v-28.042969h404zm-66.914062-377.75h36v63.523437l-36-27.855469zm-141.207032-1.132813-203.574218 157.535156-21.21875-21.292969 230.914062-178.6875 230.902344 178.679688-21.253906 21.265625-203.527344-157.5c-3.605469-2.789063-8.636719-2.789063-12.242188 0zm0 0"/><path d="m436 337.449219c-2.628906 0-5.210938 1.070312-7.070312 2.929687-1.859376 1.859375-2.929688 4.441406-2.929688 7.070313 0 2.628906 1.070312 5.210937 2.929688 7.070312 1.859374 1.859375 4.441406 2.929688 7.070312 2.929688s5.210938-1.070313 7.070312-2.929688c1.859376-1.859375 2.929688-4.441406 2.929688-7.070312 0-2.628907-1.070312-5.210938-2.929688-7.070313-1.859374-1.859375-4.441406-2.929687-7.070312-2.929687zm0 0"/><path d="m17.070312 46.109375c16.839844-16.835937 39.226563-26.109375 63.039063-26.109375 23.808594 0 46.195313 9.273438 63.035156 26.109375 1.953125 1.953125 4.511719 2.929687 7.070313 2.929687s5.117187-.976562 7.070312-2.929687c3.90625-3.90625 3.90625-10.238281 0-14.140625-20.613281-20.613281-48.023437-31.96875-77.175781-31.96875-29.15625 0-56.566406 11.355469-77.179687 31.96875-3.90625 3.902344-3.90625 10.234375 0 14.140625 3.902343 3.90625 10.234374 3.90625 14.140624 0zm0 0"/><path d="m113.640625 85.613281c2.558594 0 5.117187-.976562 7.070313-2.929687 3.90625-3.902344 3.90625-10.234375 0-14.140625-22.390626-22.390625-58.816407-22.390625-81.207032 0-3.90625 3.902343-3.90625 10.234375 0 14.140625 3.902344 3.90625 10.234375 3.90625 14.140625 0 7.070313-7.066406 16.464844-10.960938 26.460938-10.960938 9.996093 0 19.394531 3.894532 26.460937 10.960938 1.957032 1.953125 4.515625 2.929687 7.074219 2.929687zm0 0"/><path d="m73.039062 103.21875c-1.859374 1.859375-2.929687 4.441406-2.929687 7.070312 0 2.640626 1.070313 5.210938 2.929687 7.070313 1.859376 1.859375 4.441407 2.929687 7.070313 2.929687s5.210937-1.070312 7.070313-2.929687c1.859374-1.859375 2.929687-4.4375 2.929687-7.070313 0-2.628906-1.070313-5.210937-2.929687-7.070312-1.859376-1.859375-4.441407-2.929688-7.070313-2.929688s-5.210937 1.070313-7.070313 2.929688zm0 0"/><path d="m245 335.960938h-13c-5.523438 0-10 4.476562-10 10 0 5.519531 4.476562 10 10 10h13c5.523438 0 10-4.480469 10-10 0-5.523438-4.476562-10-10-10zm0 0"/></svg>