<svg height="512pt" viewBox="-29 0 512 512" width="512pt" xmlns="http://www.w3.org/2000/svg"><path d="m117.339844 10h326.675781v492h-326.675781zm0 0" fill="#884024"/><path d="m114.675781 45.011719h294.316407v421.976562h-294.316407zm0 0" fill="#d98325"/><path d="m328.160156 363.011719c-3.664062 0-7.246094.207031-10.746094.601562 6.480469.035157 10.746094-.601562 10.746094-.601562zm0 0" fill="#ffb35e"/><path d="m241.132812 300.578125c8.09375 0 15.238282-1.480469 21.539063-4.023437 0-33.832032 0-62.019532 0-62.019532s-7.164063 56.429688-50.648437 56.429688v28.597656s-35.910157 7.53125-93.214844 64.835938c5.703125 8.125 12.714844 14.414062 20.566406 19.242187 63.140625-57.148437 101.753906-65.253906 101.753906-65.253906v-37.808594zm0 0" fill="#fff"/><g fill="#ffb35e"><path d="m317.414062 363.613281c-2.519531-.015625-5.367187-.128906-8.4375-.421875.332032.527344.671876 1.042969 1.015626 1.554688 2.433593-.46875 4.90625-.851563 7.421874-1.132813zm0 0"/><path d="m308.976562 363.191406c-.296874-.472656-.597656-.945312-.886718-1.429687 0-63.925781 0-135.792969 0-135.792969s-6.992188 55.070312-45.417969 70.585938v40.691406c11.238281 18.84375 31.332031 24.515625 46.304687 25.945312zm0 0"/><path d="m234.847656 415.804688c19.839844-24.246094 44.234375-45.066407 75.144532-51.058594-.34375-.507813-.683594-1.027344-1.015626-1.554688-14.972656-1.429687-35.066406-7.101562-46.304687-25.945312 0-13.535156 0-27.539063 0-40.691406-6.300781 2.542968-13.445313 4.023437-21.539063 4.023437v37.808594s-38.613281 8.105469-101.757812 65.253906c28.21875 17.347656 67.289062 15.75 95.472656 12.164063zm0 0"/></g><path d="m202.355469 155.511719c-.375-5.546875-.597657-8.773438-.597657-8.773438s-50.203124 2.550781-50.203124 64.867188v142.363281s11.527343-7.847656 25.25-16.183594c0-29.109375 0-90.59375 0-126.179687 0-31.53125 12.851562-47.753907 25.550781-56.09375zm0 0" fill="#fff"/><path d="m202.355469 155.511719c-12.699219 8.339843-25.550781 24.5625-25.550781 56.09375v126.179687c12.183593-7.402344 26.101562-15.191406 35.21875-18.222656 0-20.027344-7.476563-131.742188-9.667969-164.050781zm0 0" fill="#1c237a"/><path d="m119.605469 385.464844c-39.320313 39.558594-52.53125 81.449218-52.53125 81.449218h42.75s8.988281-28.488281 34.191406-60.667968c-9.359375-4.90625-17.730469-11.648438-24.410156-20.78125zm0 0" fill="#fff"/><path d="m328.160156 363.011719c-11.636718 0-22.4375 2.070312-32.488281 5.707031 16.261719-1.773438 31.410156-3.25 44.585937-4.253906-3.902343-.988282-7.949218-1.453125-12.097656-1.453125zm0 0" fill="#1c237a"/><path d="m340.257812 364.464844c-13.175781 1.003906-28.324218 2.480468-44.585937 4.253906-24.265625 8.769531-44.15625 26.714844-60.828125 47.085938-26.667969 3.394531-63.085938 4.992187-90.828125-9.558594-25.207031 32.179687-34.191406 60.671875-34.191406 60.671875h274.222656c0-68.304688-18.921875-96.152344-43.789063-102.453125zm0 0" fill="#1c237a"/><path d="m196.628906 221.984375c0-29.832031 13.902344-55.238281 33.363282-64.859375-5.316407-2.625-11.300782-4.125-17.96875-4.125-27.96875 0-50.644532 30.882812-50.644532 68.980469 0 38.097656 22.675782 68.984375 50.644532 68.984375 6.199218 0 12.136718-1.523438 17.625-4.300782-19.28125-9.75-33.019532-35.027343-33.019532-64.679687zm0 0" fill="#fff"/><path d="m262.671875 221.984375c0-23.660156-10.605469-53.972656-32.675781-64.859375-19.460938 9.621094-33.367188 35.027344-33.367188 64.859375 0 29.652344 13.742188 54.929687 33.023438 64.683594 19.277344-9.753907 33.019531-35.03125 33.019531-64.683594zm0 0" fill="#ffb35e"/><path d="m179.515625 169.09375 19.378906-9.59375c-2.871093-1.746094-5.855469-3.09375-8.894531-4.09375-7.914062 7.339844-10.484375 13.6875-10.484375 13.6875zm0 0" fill="#1c237a"/><path d="m237.675781 134.882812c-2.085937.300782-4.074219.660157-6.023437 1.039063 39.292968 7.027344 59.007812 37.175781 59.007812 86.824219v136.785156c9.421875 3.277344 21.6875 5.089844 37.5 3.484375v-140.269531c0-61.5-30.234375-93.105469-90.484375-87.863282zm0 0" fill="#1c237a"/><path d="m231.652344 135.921875c-20.863282 4.074219-33.859375 12.257813-41.648438 19.484375 3.035156 1.003906 6.019532 2.347656 8.890625 4.09375l13.132813-6.5c23.574218 0 50.644531 15.28125 50.644531 71.601562v112.644532s6.722656 14.886718 27.988281 22.285156v-136.785156c0-49.648438-19.714844-79.796875-59.007812-86.824219zm0 0" fill="#fff"/><path d="m444.015625 0h-434.015625c-5.523438 0-10 4.476562-10 10v492c0 5.523438 4.476562 10 10 10h434.015625c5.519531 0 10-4.476562 10-10v-492c0-5.523438-4.480469-10-10-10zm-10 492h-414.015625v-472h414.015625zm0 0"/><path d="m119.859375 55.011719h.128906c5.523438 0 10-4.476563 10-10 0-5.523438-4.476562-10-10-10h-.128906c-5.523437 0-10 4.476562-10 10 0 5.523437 4.476563 10 10 10zm0 0"/><path d="m45.023438 476.917969h363.964843c5.523438 0 10-4.476563 10-10v-421.90625c0-5.523438-4.476562-10-10-10h-254.640625c-5.523437 0-10 4.476562-10 10 0 5.523437 4.476563 10 10 10h244.640625v401.902343h-5.085937c-.972656-33.773437-6.972656-59.621093-17.878906-76.917968-9.234376-14.640625-22.199219-23.535156-37.863282-26.152344v-131.097656c0-34.9375-9.269531-61.152344-27.550781-77.910156-17.40625-15.960938-42.238281-22.664063-73.800781-19.917969-.195313.015625-.386719.039062-.578125.066406-22.085938 3.21875-37.195313 10.695313-47.320313 18.351563-4.066406 1.828124-8.402344 4.148437-12.734375 7.085937-15.792969 10.714844-34.621093 31.828125-34.621093 71.558594v128.097656c-9.1875 7.59375-19.144532 16.578125-29.792969 27.226563-.027344.023437-.050781.050781-.078125.074218-.042969.046875-.089844.09375-.136719.140625-30.707031 32.199219-45.917969 65.289063-51.472656 79.394531h-5.050781v-401.902343h30.484374c5.523438 0 10-4.476563 10-10 0-5.523438-4.476562-10-10-10h-40.484374c-5.523438 0-10 4.476562-10 10v421.902343c0 5.523438 4.476562 10.003907 10 10.003907zm252.070312-317.339844c13.980469 12.8125 21.066406 34.066406 21.066406 63.167969v130.851562c-30.277344.449219-42.273437-14-45.488281-18.964844v-110.03125c0-28.078124-6.402344-49.472656-19.03125-63.585937-6.890625-7.707031-14.675781-12.261719-22.199219-14.863281 2.339844-.5 4.800782-.949219 7.390625-1.332032 25.601563-2.179687 45.207031 2.785157 58.261719 14.757813zm-112.820312 19.542969c7.632812-10.394532 17.488281-16.121094 27.75-16.121094 25.859374 0 40.246093 21.304688 40.628906 60.019531-.1875 15.917969-4.738282 30.738281-12.875 41.824219-7.632813 10.394531-17.488282 16.125-27.75 16.125-10.261719 0-20.121094-5.726562-27.753906-16.125-8.3125-11.324219-12.894532-26.546875-12.894532-42.859375s4.582032-31.535156 12.894532-42.863281zm29.804687 150.230468c4.628906-.972656 7.945313-5.054687 7.945313-9.789062v-19.65625c11.453124-2.421875 22.003906-9 30.648437-19.175781v56.515625c0 1.417968.300781 2.816406.882813 4.109375.421874.933593 6.890624 14.699219 25.058593 23.945312-16.976562 8.835938-33.207031 22.464844-48.917969 41.054688-46.957031 5.40625-78.960937-1.535157-97.398437-21.179688 50.105469-48.183593 81.535156-55.769531 81.78125-55.824219zm-45.925781-52.671874c9.175781 12.496093 20.953125 20.496093 33.871094 23.226562v12.375c-8.054688 3.039062-21.941407 9.472656-40.46875 22.488281v-68.835937c1.945312 3.792968 4.136718 7.394531 6.597656 10.746094zm-49.683594 122.960937c12.929688 13.351563 30.675781 22.085937 52.933594 26.023437 18.339844 3.25 39.507812 3.269532 64.707031.0625 2.539063-.324218 4.855469-1.609374 6.476563-3.589843 24.109374-29.464844 48.972656-45.421875 75.722656-48.542969 3.242187-.046875 6.632812-.230469 10.175781-.570312 28.5625.214843 43.824219 28.417968 45.421875 83.890624h-292.109375c5.957031-13.285156 17.46875-35.070312 36.671875-57.273437zm0 0"/></svg>