<svg height="512.001pt" viewBox="0 0 512.001 512.001" width="512.001pt" xmlns="http://www.w3.org/2000/svg"><path d="m35.464844 180.882812c-12.40625 0-22.464844 10.058594-22.464844 22.46875v148.949219c3.882812 6.726563 11.140625 11.257813 19.464844 11.257813h447.070312c12.40625 0 22.464844-10.058594 22.464844-22.46875v-148.949219c-3.882812-6.726563-11.140625-11.253906-19.464844-11.253906h-447.070312zm0 0" fill="#c9f3ff"/><path d="m449.324219 363.558594v-71.890625h-381.917969v71.890625" fill="#4dbaf6"/><path d="m449.324219 219.851562c0 12.410157-10.058594 22.46875-22.46875 22.46875-12.40625 0-22.464844-10.058593-22.464844-22.46875 0-12.40625 10.058594-22.464843 22.464844-22.464843 12.410156 0 22.46875 10.058593 22.46875 22.464843zm0 0" fill="#ff5d5d"/><path d="m353.839844 219.851562c0 12.410157-10.058594 22.46875-22.46875 22.46875-12.40625 0-22.464844-10.058593-22.464844-22.46875 0-12.40625 10.058594-22.464843 22.464844-22.464843 12.410156 0 22.46875 10.058593 22.46875 22.464843zm0 0" fill="#a0e557"/><path d="m258.351562 219.851562c0 12.410157-10.058593 22.46875-22.464843 22.46875s-22.464844-10.058593-22.464844-22.46875c0-12.40625 10.058594-22.464843 22.464844-22.464843s22.464843 10.058593 22.464843 22.464843zm0 0" fill="#a0e557"/><path d="m379.5625 502h-247.125c-12.40625 0-22.464844-10.058594-22.464844-22.464844v-187.867187h292.054688v187.867187c0 12.40625-10.058594 22.464844-22.464844 22.464844zm0 0" fill="#fff"/><path d="m69.472656 111.980469c-9.304687 0-16.847656 7.542969-16.847656 16.851562v19.054688h408.375v-23.0625c-1.800781-7.367188-8.429688-12.84375-16.347656-12.84375zm0 0" fill="#4dbaf6"/><path d="m379.5625 10h-247.125c-12.40625 0-22.464844 10.058594-22.464844 22.464844v115.421875h292.054688v-115.421875c0-12.40625-10.058594-22.464844-22.464844-22.464844zm0 0" fill="#fff"/><path d="m379.5625 10h-247.125c-12.40625 0-22.464844 10.058594-22.464844 22.464844v115.421875h292.054688v-115.421875c0-12.40625-10.058594-22.464844-22.464844-22.464844zm0 0" fill="#feda9b"/><path d="m379.5625 10h-247.125c-12.40625 0-22.464844 10.058594-22.464844 22.464844v115.421875h292.054688v-115.421875c0-12.40625-10.058594-22.464844-22.464844-22.464844zm0 0" fill="#fff"/><path d="m479.535156 137.886719h-8.535156v-36.054688c0-14.804687-12.042969-26.851562-26.847656-26.851562h-32.125v-42.515625c0-17.902344-14.5625-32.464844-32.464844-32.464844h-138.5625c-5.523438 0-10 4.476562-10 10s4.476562 10 10 10h138.5625c6.875 0 12.464844 5.59375 12.464844 12.464844v105.421875h-272.054688v-105.421875c0-6.871094 5.59375-12.464844 12.464844-12.464844h25.230469c5.523437 0 10-4.476562 10-10s-4.476563-10-10-10h-25.230469c-17.902344 0-32.464844 14.5625-32.464844 32.464844v42.601562c-.40625-.050781-.8125-.085937-1.234375-.085937h-29.765625c-14.804687 0-26.851562 12.046875-26.851562 26.851562v36.054688h-9.65625c-17.902344 0-32.464844 14.5625-32.464844 32.464843v170.742188c0 17.898438 14.5625 32.464844 32.464844 32.464844h67.507812v105.976562c0 17.902344 14.5625 32.464844 32.464844 32.464844h247.125c17.902344 0 32.464844-14.5625 32.464844-32.464844v-105.976562h67.507812c17.902344 0 32.464844-14.566406 32.464844-32.464844v-170.742188c0-17.902343-14.5625-32.464843-32.464844-32.464843zm-67.507812-42.90625h32.125c3.777344 0 6.847656 3.074219 6.847656 6.851562v36.054688h-38.972656zm-349.90625 6.851562c0-3.777343 3.074218-6.851562 6.851562-6.851562h29.765625c.417969 0 .828125-.035157 1.234375-.082031v42.988281h-37.851562zm15.285156 251.726563v-51.890625h22.566406v51.890625zm314.621094 125.976562c0 6.871094-5.59375 12.464844-12.464844 12.464844h-247.125c-6.875 0-12.464844-5.59375-12.464844-12.464844v-177.867187h231.027344v44c0 5.519531 4.476562 10 10 10s10-4.480469 10-10v-44h21.027344zm20-177.867187h27.292968v51.890625h-27.292968zm79.972656 39.425781c0 6.871094-5.59375 12.464844-12.464844 12.464844h-20.210937v-61.890625c0-5.523438-4.476563-10-10-10h-381.917969c-5.523438 0-10 4.476562-10 10v61.890625h-24.941406c-6.871094 0-12.464844-5.59375-12.464844-12.464844v-170.742188c0-6.875 5.59375-12.464843 12.464844-12.464843h447.070312c6.871094 0 12.464844 5.589843 12.464844 12.464843zm0 0"/><path d="m426.855469 187.386719c-17.902344 0-32.464844 14.566406-32.464844 32.46875 0 17.902343 14.5625 32.464843 32.464844 32.464843 17.902343 0 32.46875-14.5625 32.46875-32.464843 0-17.902344-14.566407-32.46875-32.46875-32.46875zm0 44.933593c-6.871094 0-12.464844-5.59375-12.464844-12.46875 0-6.871093 5.59375-12.464843 12.464844-12.464843 6.875 0 12.46875 5.59375 12.46875 12.464843 0 6.875-5.59375 12.46875-12.46875 12.46875zm0 0"/><path d="m331.371094 187.386719c-17.902344 0-32.464844 14.566406-32.464844 32.46875 0 17.902343 14.5625 32.464843 32.464844 32.464843s32.46875-14.5625 32.46875-32.464843c0-17.902344-14.566406-32.46875-32.46875-32.46875zm0 44.933593c-6.875 0-12.464844-5.59375-12.464844-12.46875 0-6.871093 5.589844-12.464843 12.464844-12.464843s12.46875 5.59375 12.46875 12.464843c0 6.875-5.59375 12.46875-12.46875 12.46875zm0 0"/><path d="m235.886719 187.386719c-17.902344 0-32.464844 14.566406-32.464844 32.46875 0 17.902343 14.5625 32.464843 32.464844 32.464843 17.902343 0 32.464843-14.5625 32.464843-32.464843 0-17.902344-14.5625-32.46875-32.464843-32.46875zm0 44.933593c-6.875 0-12.464844-5.59375-12.464844-12.46875 0-6.871093 5.59375-12.464843 12.464844-12.464843 6.875 0 12.464843 5.59375 12.464843 12.464843 0 6.875-5.589843 12.46875-12.464843 12.46875zm0 0"/><path d="m203.671875 20c2.628906 0 5.207031-1.070312 7.066406-2.929688 1.863281-1.859374 2.933594-4.441406 2.933594-7.070312s-1.070313-5.210938-2.933594-7.070312c-1.867187-1.859376-4.4375-2.929688-7.066406-2.929688-2.640625 0-5.210937 1.070312-7.082031 2.929688-1.859375 1.859374-2.917969 4.441406-2.917969 7.070312s1.058594 5.210938 2.917969 7.070312c1.859375 1.859376 4.441406 2.929688 7.082031 2.929688zm0 0"/><path d="m361 373.671875c-2.640625 0-5.210938 1.066406-7.070312 2.929687-1.859376 1.859376-2.929688 4.429688-2.929688 7.070313 0 2.628906 1.070312 5.207031 2.929688 7.066406 1.859374 1.859375 4.441406 2.933594 7.070312 2.933594s5.210938-1.070313 7.070312-2.933594c1.859376-1.867187 2.929688-4.4375 2.929688-7.066406 0-2.632813-1.070312-5.210937-2.929688-7.070313-1.859374-1.863281-4.441406-2.929687-7.070312-2.929687zm0 0"/></svg>