<svg height="512pt" viewBox="0 0 512 512.00066" width="512pt" xmlns="http://www.w3.org/2000/svg"><path d="m346.714844 340.285156-26.953125 26.953125 124.953125 124.953125c11.789062 11.789063 30.164062 12.964844 43.277344 3.542969.070312-8.675781-3.203126-17.375-9.820313-23.996094zm0 0" fill="#ff5d5d"/><path d="m353.667969 324.664062-49.019531 49.019532 20.457031 20.457031c3.128906 3.128906 7.398437 4.410156 11.472656 3.871094l35.546875-35.542969c5.339844-5.34375 5.339844-14.003906 0-19.347656zm0 0" fill="#ffc66c"/><path d="m393.996094 202c0-82.210938-51.675782-152.339844-124.308594-179.714844-8.195312-1.070312-16.546875-1.625-25.03125-1.625-106.042969 0-192.007812 85.964844-192.007812 192.007813 0 82.210937 51.671874 152.339843 124.304687 179.71875 8.195313 1.066406 16.546875 1.621093 25.035156 1.621093 106.042969 0 192.007813-85.964843 192.007813-192.007812zm0 0" fill="#4dbaf6"/><path d="m341.992188 202c0 77.324219-62.683594 140.007812-140.003907 140.007812-77.324219 0-140.007812-62.683593-140.007812-140.007812 0-77.320312 62.683593-140.003906 140.007812-140.003906 77.320313 0 140.003907 62.683594 140.003907 140.003906zm0 0" fill="#fff"/><path d="m66.214844 76.230469c2.554687 0 5.105468-.96875 7.054687-2.910157l.296875-.296874c3.914063-3.894532 3.929688-10.226563.035156-14.140626-3.898437-3.917968-10.226562-3.929687-14.144531-.035156l-.292969.292969c-3.914062 3.898437-3.933593 10.230469-.035156 14.144531 1.953125 1.964844 4.519532 2.945313 7.085938 2.945313zm0 0"/><path d="m201.988281 352.007812c82.710938 0 150.003907-67.292968 150.003907-150.007812 0-82.710938-67.292969-150.003906-150.003907-150.003906-82.714843 0-150.007812 67.292968-150.007812 150.003906 0 82.714844 67.292969 150.007812 150.007812 150.007812zm0-280.011718c71.683594 0 130.003907 58.320312 130.003907 130.003906 0 71.6875-58.320313 130.007812-130.003907 130.007812-71.6875 0-130.007812-58.320312-130.007812-130.007812 0-71.683594 58.320312-130.003906 130.007812-130.003906zm0 0"/><path d="m499.242188 437.664062-59.128907-59.128906.703125-.703125c3.90625-3.90625 3.90625-10.238281 0-14.144531-3.902344-3.90625-10.234375-3.90625-14.140625 0l-.707031.703125-19.929688-19.929687c3.886719-8.703126 2.289063-19.28125-4.84375-26.414063l-20.964843-20.964844c40.695312-76.390625 28.902343-173.617187-35.402344-237.921875-33.207031-33.207031-77.203125-53.90625-123.882813-58.28125-46.0625-4.316406-92.523437 7.355469-130.8125 32.863282-4.597656 3.0625-5.839843 9.273437-2.78125 13.867187 3.0625 4.597656 9.273438 5.839844 13.871094 2.78125 71.828125-47.855469 168.332032-38.21875 229.460938 22.910156 70.964844 70.964844 70.964844 186.433594 0 257.398438-70.964844 70.964843-186.433594 70.964843-257.394532 0-61.539062-61.539063-70.898437-158.453125-22.261718-230.4375 3.09375-4.578125 1.890625-10.792969-2.6875-13.886719s-10.792969-1.890625-13.882813 2.6875c-53.992187 79.910156-43.609375 187.484375 24.6875 255.78125 39.382813 39.378906 91.109375 59.070312 142.839844 59.070312 32.738281 0 65.472656-7.894531 95.082031-23.667968l20.964844 20.964844c4.617188 4.617187 10.679688 6.925781 16.746094 6.925781 3.300781 0 6.589844-.710938 9.660156-2.078125l19.929688 19.933594-.699219.699218c-3.902344 3.90625-3.902344 10.238282 0 14.144532 1.953125 1.953124 4.515625 2.929687 7.074219 2.929687 2.558593 0 5.117187-.976563 7.070312-2.929687l.699219-.699219 59.128906 59.128906c8.492187 8.488281 19.644531 12.734375 30.796875 12.734375s22.308594-4.246094 30.800781-12.734375c8.226563-8.226563 12.757813-19.167969 12.757813-30.800781.003906-11.636719-4.527344-22.574219-12.753906-30.800782zm-167.066407-50.597656-17.441406-17.441406c10.621094-7.144531 20.710937-15.398438 30.09375-24.78125s17.636719-19.476562 24.785156-30.09375l17.4375 17.4375c1.4375 1.4375 1.4375 3.773438 0 5.207031l-49.667969 49.671875c-1.4375 1.4375-3.773437 1.433594-5.207031 0zm27.523438 5.96875 33.3125-33.3125 18.8125 18.8125-33.3125 33.3125zm125.398437 92.085938c-9.183594 9.183594-24.125 9.183594-33.3125 0l-59.128906-59.128906 33.3125-33.3125 59.128906 59.128906c9.183594 9.183594 9.183594 24.128906 0 33.3125zm0 0"/><path d="m201.988281 120c45.214844 0 82 36.785156 82 82 0 5.523438 4.476563 10.003906 10 10.003906 5.523438 0 10.003907-4.480468 10.003907-10.003906 0-56.242188-45.761719-102.003906-102.003907-102.003906-5.523437 0-10 4.480468-10 10.003906 0 5.519531 4.476563 10 10 10zm0 0"/><path d="m159.695312 130.28125c1.554688 0 3.132813-.367188 4.605469-1.132812l.53125-.273438c4.921875-2.5 6.886719-8.519531 4.382813-13.445312-2.503906-4.921876-8.523438-6.882813-13.445313-4.382813l-.699219.359375c-4.898437 2.550781-6.804687 8.585938-4.253906 13.488281 1.78125 3.421875 5.269532 5.386719 8.878906 5.386719zm0 0"/></svg>