<?xml version="1.0" encoding="utf-8"?>
<!-- Generator: Adobe Illustrator 24.0.1, SVG Export Plug-In . SVG Version: 6.00 Build 0)  -->
<svg version="1.1"
	 id="svg8" inkscape:version="0.92.3 (2405546, 2018-03-11)" sodipodi:docname="PDF file icon.svg" xmlns:cc="http://creativecommons.org/ns#" xmlns:dc="http://purl.org/dc/elements/1.1/" xmlns:inkscape="http://www.inkscape.org/namespaces/inkscape" xmlns:rdf="http://www.w3.org/1999/02/22-rdf-syntax-ns#" xmlns:sodipodi="http://sodipodi.sourceforge.net/DTD/sodipodi-0.dtd" xmlns:svg="http://www.w3.org/2000/svg"
	 xmlns="http://www.w3.org/2000/svg" xmlns:xlink="http://www.w3.org/1999/xlink" x="0px" y="0px" viewBox="0 0 16.4 20.1"
	 style="enable-background:new 0 0 16.4 20.1;" xml:space="preserve">
<style type="text/css">
	.st0{fill:#FF2116;}
	.st1{fill:#F5F5F5;}
	.st2{display:none;}
	.st3{display:inline;fill:#2C2C2C;}
</style>
<title  id="title2682">PDF file icon</title>
<sodipodi:namedview  bordercolor="#666666" borderopacity="1.0" fit-margin-bottom="0" fit-margin-left="0" fit-margin-right="0" fit-margin-top="0" id="base" inkscape:current-layer="g899" inkscape:cx="122.12727" inkscape:cy="167.02823" inkscape:document-units="mm" inkscape:object-nodes="false" inkscape:pageopacity="0.0" inkscape:pageshadow="2" inkscape:snap-others="false" inkscape:snap-page="false" inkscape:window-height="705" inkscape:window-maximized="1" inkscape:window-width="1366" inkscape:window-x="-8" inkscape:window-y="-8" inkscape:zoom="0.98994949" pagecolor="#ffffff" showgrid="false">
	</sodipodi:namedview>
<g id="g876">
	<path id="path890" inkscape:connector-curvature="0" class="st0" d="M2.1,0C0.9,0,0,0.9,0,2.1v16c0,1.1,0.9,2.1,2.1,2.1h12.2
		c1.1,0,2.1-0.9,2.1-2.1V4.9c0,0,0-0.4-0.1-0.8c-0.2-0.4-0.4-0.6-0.4-0.6c0,0,0,0,0,0l-3-3c0,0,0,0,0,0c0,0-0.3-0.2-0.6-0.4
		C11.7,0,11.2,0,11.2,0l0,0L2.1,0z"/>
	<path id="rect2684" inkscape:connector-curvature="0" class="st1" d="M2.1,0.7h9.2c0,0,0,0,0,0c0,0,0.4,0,0.6,0.1
		c0.3,0.1,0.4,0.3,0.4,0.3c0,0,0,0,0,0l3,3c0,0,0.2,0.2,0.3,0.4c0.1,0.2,0.1,0.5,0.1,0.5c0,0,0,0,0,0v13.2c0,0.8-0.6,1.4-1.4,1.4
		H2.1c-0.8,0-1.4-0.6-1.4-1.4v-16C0.7,1.3,1.3,0.7,2.1,0.7L2.1,0.7z"/>
	
		<path id="path2697" inkscape:connector-curvature="0" sodipodi:nodetypes="scccscccscccccssscacccsccccccccccccccccccccaccccccccc" class="st0" d="
		M2.5,15.8c-0.7-0.7,0.1-1.6,2-2.6l1.2-0.6l0.5-1.1c0.3-0.6,0.7-1.5,0.9-2.1l0.4-1L7.2,7.7C6.9,6.7,6.8,5.3,7,4.8
		c0.3-0.7,1.2-0.6,1.6,0.1c0.3,0.6,0.3,1.6-0.1,3L8.2,9l0.3,0.4c0.1,0.2,0.5,0.8,0.9,1.2l0.7,0.8l0.8-0.1c2.6-0.3,3.5,0.2,3.5,1.1
		c0,1.1-2.1,1.1-3.8-0.1c-0.4-0.3-0.7-0.5-0.7-0.5S8.8,12,8.3,12.2c-0.6,0.1-0.8,0.2-1.6,0.5c0,0-0.3,0.4-0.5,0.7
		c-0.7,1.1-1.5,2-2.1,2.4C3.5,16.1,2.8,16.1,2.5,15.8z M3.5,15.4c0.4-0.2,1.1-1.1,1.7-2l0.2-0.3l-1,0.5c-1.5,0.8-2.2,1.5-1.8,1.9
		C2.8,15.7,3,15.7,3.5,15.4L3.5,15.4z M13.3,12.7c0.4-0.3,0.3-0.8-0.1-1c-0.3-0.2-0.6-0.2-1.4-0.2c-0.5,0-1.3,0.1-1.5,0.2
		c0,0,0.5,0.3,0.7,0.4c0.3,0.2,0.9,0.4,1.4,0.6C12.8,12.9,13.1,12.9,13.3,12.7L13.3,12.7z M9.4,11.1c-0.2-0.2-0.6-0.7-0.8-1.1
		C8.2,9.6,8,9.3,8,9.3S7.8,10,7.6,10.5L7,11.9l-0.2,0.3c0,0,0.9-0.3,1.4-0.4c0.5-0.1,1.5-0.3,1.5-0.3L9.4,11.1z M8.1,6
		C8.1,5.6,8.2,5.1,8,4.8c-0.4-0.5-0.9-0.1-0.9,1c0,0.4,0.1,1,0.2,1.4L7.6,8l0.2-0.5C7.9,7.1,8,6.5,8.1,6L8.1,6z"/>
	<g id="g858" class="st2">
		<path id="path845" inkscape:connector-curvature="0" class="st3" d="M4.9,14.2h0.8c0.2,0,0.4,0,0.6,0.1c0.2,0,0.3,0.1,0.4,0.3
			c0.1,0.2,0.2,0.3,0.2,0.6c0,0.2,0,0.4-0.1,0.5c-0.1,0.1-0.2,0.3-0.3,0.3C6.2,16,6,16.1,5.7,16.1H5.4v1.2H4.9L4.9,14.2z M5.4,14.6
			v1.1h0.3c0.2,0,0.4,0,0.5-0.1c0.1-0.1,0.1-0.2,0.1-0.4c0-0.1,0-0.3-0.1-0.3C6.1,14.7,6,14.6,6,14.6c-0.1,0-0.2,0-0.3,0L5.4,14.6z"
			/>
		<path id="path847" inkscape:connector-curvature="0" class="st3" d="M7.2,14.2h0.7c0.3,0,0.6,0.1,0.8,0.2c0.2,0.1,0.4,0.3,0.5,0.5
			c0.1,0.2,0.2,0.5,0.2,0.8c0,0.3,0,0.6-0.1,0.8c-0.1,0.2-0.2,0.4-0.4,0.6c-0.2,0.1-0.5,0.2-0.8,0.2H7.2V14.2z M7.7,14.6v2.3h0.2
			c0.3,0,0.5-0.1,0.6-0.3c0.1-0.2,0.2-0.5,0.2-0.8c0-0.8-0.3-1.1-0.8-1.1L7.7,14.6z"/>
		<path id="path849" inkscape:connector-curvature="0" class="st3" d="M9.8,14.2h1.7v0.4h-1.2v0.9h1v0.4h-1v1.3H9.8V14.2z"/>
	</g>
</g>
</svg>
